<svg id="svg" version="1.1" xmlns="http://www.w3.org/2000/svg" xmlns:xlink="http://www.w3.org/1999/xlink" width="400" height="400" viewBox="0, 0, 400,400"><g id="svgg"><path id="path0" d="M68.157 76.558 C 62.965 79.724,60.723 88.142,63.622 93.593 C 64.979 96.146,191.861 222.913,194.285 224.138 C 196.487 225.250,203.513 225.250,205.715 224.138 C 208.139 222.913,335.021 96.146,336.378 93.593 C 340.850 85.182,334.703 75.010,325.144 75.003 C 319.038 74.999,322.094 72.215,258.789 135.431 L 200.000 194.137 141.211 135.431 C 108.877 103.142,81.654 76.337,80.715 75.862 C 77.886 74.433,71.019 74.813,68.157 76.558 M68.157 176.558 C 62.965 179.724,60.723 188.142,63.622 193.593 C 64.979 196.146,191.861 322.913,194.285 324.138 C 196.487 325.250,203.513 325.250,205.715 324.138 C 208.139 322.913,335.021 196.146,336.378 193.593 C 340.850 185.182,334.703 175.010,325.144 175.003 C 319.038 174.999,322.094 172.215,258.789 235.431 L 200.000 294.137 141.211 235.431 C 108.877 203.142,81.654 176.337,80.715 175.862 C 77.886 174.433,71.019 174.813,68.157 176.558 " stroke="none" fill="#000000" fill-rule="evenodd"></path></g></svg>