<svg id="svg" version="1.1" xmlns="http://www.w3.org/2000/svg" xmlns:xlink="http://www.w3.org/1999/xlink" viewBox="61.52 147.68 273.9 104.65"><g id="svgg"><path id="path0" d="M132.308 158.462 L 132.308 169.231 96.923 169.231 C 75.385 169.231,61.538 170.435,61.538 172.308 C 61.538 174.181,75.385 175.385,96.923 175.385 L 132.308 175.385 132.308 200.000 L 132.308 224.615 96.923 224.615 C 75.385 224.615,61.538 225.819,61.538 227.692 C 61.538 229.565,75.385 230.769,96.923 230.769 L 132.308 230.769 132.308 241.538 L 132.308 252.308 173.462 252.308 C 234.884 252.308,250.291 245.726,258.275 216.079 L 261.776 203.077 298.580 203.077 C 321.065 203.077,335.385 201.880,335.385 200.000 C 335.385 198.120,321.065 196.923,298.580 196.923 L 261.776 196.923 258.275 183.921 C 250.291 154.274,234.884 147.692,173.462 147.692 L 132.308 147.692 132.308 158.462 M240.107 165.537 C 260.443 185.873,260.443 214.127,240.107 234.463 L 228.416 246.154 183.439 246.154 L 138.462 246.154 138.462 200.000 L 138.462 153.846 183.439 153.846 L 228.416 153.846 240.107 165.537 " stroke="none" fill="#000000" fill-rule="evenodd"></path></g></svg>