<svg id="svg" xmlns="http://www.w3.org/2000/svg" xmlns:xlink="http://www.w3.org/1999/xlink" width="400" height="386.2068965517241" viewBox="0, 0, 400,386.2068965517241"><g id="svgg"><path id="path0" d="M0.000 193.103 C 0.000 299.310,5.510 386.207,12.245 386.207 C 34.422 386.207,400.000 204.147,400.000 193.103 C 400.000 182.059,34.422 0.000,12.245 0.000 C 5.510 0.000,0.000 86.897,0.000 193.103 M196.552 112.729 C 278.103 152.059,344.828 188.228,344.828 193.103 C 344.828 202.293,56.224 345.049,37.931 344.908 C 32.241 344.864,27.586 276.552,27.586 193.103 C 27.586 109.655,32.241 41.343,37.931 41.299 C 43.621 41.255,115.000 73.398,196.552 112.729 " stroke="none" fill="#000000" fill-rule="evenodd"></path></g></svg>