<svg id="svg" version="1.1" xmlns="http://www.w3.org/2000/svg" xmlns:xlink="http://www.w3.org/1999/xlink" width="400" height="384.75073313782997" viewBox="0, 0, 400,384.75073313782997"><g id="svgg"><path id="path0" d="M2.346 191.789 L 2.346 381.239 190.909 380.942 L 379.472 380.645 379.773 292.375 L 380.073 204.106 388.864 204.106 L 397.654 204.106 397.654 197.067 L 397.654 190.029 388.863 190.029 L 380.073 190.029 379.772 96.481 L 379.472 2.933 190.909 2.636 L 2.346 2.339 2.346 191.789 M365.693 192.082 L 365.990 367.155 191.206 367.155 L 16.422 367.155 16.422 191.785 L 16.422 16.415 190.909 16.712 L 365.396 17.009 365.693 192.082 M23.069 24.242 C 22.639 24.673,22.287 100.684,22.287 193.157 L 22.287 361.290 191.202 361.290 L 360.117 361.290 360.117 192.375 L 360.117 23.460 191.984 23.460 C 99.511 23.460,23.500 23.812,23.069 24.242 M355.425 192.962 L 355.425 356.598 191.789 356.598 L 28.152 356.598 28.152 192.962 L 28.152 29.326 191.789 29.326 L 355.425 29.326 355.425 192.962 " stroke="none" fill="#000000" fill-rule="evenodd"></path></g></svg>