<svg id="svg" xmlns="http://www.w3.org/2000/svg" xmlns:xlink="http://www.w3.org/1999/xlink" width="400" height="277.55102040816325" viewBox="0, 0, 400,277.55102040816325"><g id="svgg"><path id="path0" d="M0.000 138.776 L 0.000 277.551 112.245 277.505 C 267.731 277.442,317.892 256.854,334.990 186.078 C 338.214 172.730,345.493 167.877,362.621 167.652 C 411.307 167.013,411.307 110.538,362.621 109.899 C 345.493 109.674,338.214 104.821,334.990 91.473 C 317.892 20.697,267.731 0.109,112.245 0.046 L 0.000 0.000 0.000 138.776 M285.998 47.342 C 339.952 101.296,339.952 176.255,285.998 230.209 L 254.982 261.224 135.654 261.224 L 16.327 261.224 16.327 138.776 L 16.327 16.327 135.654 16.327 L 254.982 16.327 285.998 47.342 M383.673 138.776 C 383.673 149.660,378.231 155.102,367.347 155.102 C 356.463 155.102,351.020 149.660,351.020 138.776 C 351.020 127.891,356.463 122.449,367.347 122.449 C 378.231 122.449,383.673 127.891,383.673 138.776 " stroke="none" fill="#000000" fill-rule="evenodd"></path></g></svg>