<svg id="svg" version="1.1" xmlns="http://www.w3.org/2000/svg" xmlns:xlink="http://www.w3.org/1999/xlink" viewBox="61.52 147.68 273.9 104.65"><g id="svgg"><path id="path0" d="M132.308 158.462 L 132.308 169.231 96.923 169.231 C 75.385 169.231,61.538 170.435,61.538 172.308 C 61.538 174.181,75.385 175.385,96.923 175.385 L 132.308 175.385 132.308 200.000 L 132.308 224.615 96.923 224.615 C 75.385 224.615,61.538 225.819,61.538 227.692 C 61.538 229.565,75.385 230.769,96.923 230.769 L 132.308 230.769 132.308 241.538 L 132.308 252.308 174.615 252.291 C 233.297 252.267,252.085 244.533,258.614 217.714 C 259.903 212.418,262.158 210.988,268.109 211.693 C 272.402 212.200,277.695 210.470,279.872 207.846 C 282.871 204.233,290.078 203.077,309.608 203.077 C 324.741 203.077,335.385 201.806,335.385 200.000 C 335.385 198.194,324.741 196.923,309.608 196.923 C 290.078 196.923,282.871 195.767,279.872 192.154 C 277.695 189.530,272.402 187.800,268.109 188.307 C 262.158 189.012,259.903 187.582,258.614 182.286 C 252.085 155.467,233.297 147.733,174.615 147.709 L 132.308 147.692 132.308 158.462 M240.107 165.537 C 260.443 185.873,260.443 214.127,240.107 234.463 L 228.416 246.154 183.439 246.154 L 138.462 246.154 138.462 200.000 L 138.462 153.846 183.439 153.846 L 228.416 153.846 240.107 165.537 M276.923 200.000 C 276.923 204.103,274.872 206.154,270.769 206.154 C 266.667 206.154,264.615 204.103,264.615 200.000 C 264.615 195.897,266.667 193.846,270.769 193.846 C 274.872 193.846,276.923 195.897,276.923 200.000 " stroke="none" fill="#000000" fill-rule="evenodd"></path></g></svg>