<svg id="svg" version="1.1" xmlns="http://www.w3.org/2000/svg" xmlns:xlink="http://www.w3.org/1999/xlink" viewBox="68 144.55 264.33 110.8"><g id="svgg"><path id="path0" d="M132.308 148.589 C 132.308 151.260,133.658 156.997,135.308 161.338 L 138.309 169.231 103.001 169.231 C 55.865 169.231,56.570 174.923,103.846 176.056 L 140.000 176.923 140.000 200.000 L 140.000 223.077 103.846 223.944 C 56.570 225.077,55.865 230.769,103.001 230.769 L 138.309 230.769 135.308 238.662 C 128.711 256.016,129.435 256.420,163.846 254.600 C 209.448 252.187,247.427 235.610,253.871 215.306 C 255.300 210.803,257.680 209.844,264.191 211.146 C 269.814 212.270,274.011 211.201,276.703 207.958 C 279.811 204.212,286.749 203.077,306.531 203.077 C 321.664 203.077,332.308 201.806,332.308 200.000 C 332.308 198.194,321.664 196.923,306.531 196.923 C 286.749 196.923,279.811 195.788,276.703 192.042 C 274.011 188.799,269.814 187.730,264.191 188.854 C 257.680 190.156,255.300 189.197,253.871 184.694 C 250.811 175.052,232.429 161.067,213.329 153.850 C 189.381 144.800,132.308 141.094,132.308 148.589 M208.667 158.706 C 283.384 183.545,254.434 242.871,164.881 248.437 C 138.823 250.057,137.573 249.850,139.851 244.302 C 150.099 219.334,150.099 180.666,139.851 155.698 C 136.736 148.111,182.861 150.127,208.667 158.706 M273.846 200.000 C 273.846 204.103,271.795 206.154,267.692 206.154 C 263.590 206.154,261.538 204.103,261.538 200.000 C 261.538 195.897,263.590 193.846,267.692 193.846 C 271.795 193.846,273.846 195.897,273.846 200.000 " stroke="none" fill="#000000" fill-rule="evenodd"></path></g></svg>