<svg id="svg" xmlns="http://www.w3.org/2000/svg" xmlns:xlink="http://www.w3.org/1999/xlink" width="400" height="300" viewBox="0, 0, 400,300"><g id="svgg"><path id="path0" d="M3.797 25.821 C 7.308 41.411,10.004 60.655,9.788 68.586 C 9.571 76.517,12.905 85.175,17.197 87.828 C 27.371 94.116,27.371 205.884,17.197 212.172 C 12.905 214.825,9.571 223.483,9.788 231.414 C 10.004 239.345,7.308 258.589,3.797 274.179 L -2.588 302.526 84.122 297.940 C 208.400 291.369,311.698 246.704,329.049 192.039 C 332.491 181.192,341.324 177.117,359.550 177.968 C 391.149 179.444,409.072 157.712,394.643 135.417 C 388.654 126.162,375.831 121.271,359.550 122.032 C 341.324 122.883,332.491 118.808,329.049 107.961 C 311.698 53.296,208.400 8.631,84.122 2.060 L -2.588 -2.526 3.797 25.821 M206.808 38.162 C 409.165 105.434,330.758 266.110,88.218 281.184 C 17.647 285.570,14.261 285.011,20.429 269.984 C 48.184 202.363,48.184 97.637,20.429 30.016 C 11.994 9.467,136.914 14.927,206.808 38.162 M383.333 150.000 C 383.333 161.111,377.778 166.667,366.667 166.667 C 355.556 166.667,350.000 161.111,350.000 150.000 C 350.000 138.889,355.556 133.333,366.667 133.333 C 377.778 133.333,383.333 138.889,383.333 150.000 " stroke="none" fill="#000000" fill-rule="evenodd"></path></g></svg>