<svg id="svg" xmlns="http://www.w3.org/2000/svg" xmlns:xlink="http://www.w3.org/1999/xlink" width="400" height="320" viewBox="0, 0, 400,320"><g id="svgg"><path id="path0" d="M0.000 160.000 C 0.000 250.669,4.592 320.000,10.596 320.000 C 16.424 320.000,85.152 288.662,163.324 250.359 C 291.064 187.770,307.933 182.264,329.911 195.990 C 361.218 215.541,394.286 197.054,394.286 160.000 C 394.286 122.946,361.218 104.459,329.911 124.010 C 307.933 137.736,291.064 132.230,163.324 69.641 C 85.152 31.338,16.424 0.000,10.596 0.000 C 4.592 0.000,0.000 69.331,0.000 160.000 M162.857 93.404 C 230.429 125.992,285.714 155.960,285.714 160.000 C 285.714 167.614,46.585 285.898,31.429 285.781 C 26.714 285.744,22.857 229.143,22.857 160.000 C 22.857 90.857,26.714 34.256,31.429 34.219 C 36.143 34.183,95.286 60.816,162.857 93.404 M377.143 160.000 C 377.143 175.238,369.524 182.857,354.286 182.857 C 339.048 182.857,331.429 175.238,331.429 160.000 C 331.429 144.762,339.048 137.143,354.286 137.143 C 369.524 137.143,377.143 144.762,377.143 160.000 " stroke="none" fill="#000000" fill-rule="evenodd"></path></g></svg>