<svg id="svg" version="1.1" xmlns="http://www.w3.org/2000/svg" xmlns:xlink="http://www.w3.org/1999/xlink" viewBox="64.6 158.62 270.8 82.77"><g id="svgg"><path id="path0" d="M156.923 176.923 L 156.923 196.923 110.769 196.923 C 82.051 196.923,64.615 198.085,64.615 200.000 C 64.615 201.915,82.051 203.077,110.769 203.077 L 156.923 203.077 156.923 223.077 C 156.923 247.324,154.090 247.260,201.396 224.082 C 231.060 209.547,241.012 205.935,243.774 208.697 C 248.757 213.680,256.954 213.217,261.538 207.692 C 264.533 204.085,273.012 203.077,300.377 203.077 C 321.664 203.077,335.385 201.871,335.385 200.000 C 335.385 198.129,321.664 196.923,300.377 196.923 C 273.012 196.923,264.533 195.915,261.538 192.308 C 256.954 186.783,248.757 186.320,243.774 191.303 C 241.012 194.065,231.060 190.453,201.396 175.918 C 154.090 152.740,156.923 152.676,156.923 176.923 M200.769 182.070 C 218.962 190.844,233.846 198.912,233.846 200.000 C 233.846 202.050,169.465 233.896,165.385 233.864 C 164.115 233.854,163.077 218.615,163.077 200.000 C 163.077 181.385,164.115 166.146,165.385 166.136 C 166.654 166.126,182.577 173.297,200.769 182.070 M258.462 200.000 C 258.462 204.103,256.410 206.154,252.308 206.154 C 248.205 206.154,246.154 204.103,246.154 200.000 C 246.154 195.897,248.205 193.846,252.308 193.846 C 256.410 193.846,258.462 195.897,258.462 200.000 " stroke="none" fill="#000000" fill-rule="evenodd"></path></g></svg>