<svg id="svg" xmlns="http://www.w3.org/2000/svg" xmlns:xlink="http://www.w3.org/1999/xlink" width="400" height="317.94871794871796" viewBox="0, 0, 400,317.94871794871796"><g id="svgg"><path id="path0" d="M20.513 153.846 C 20.513 235.215,24.633 297.436,30.022 297.436 C 35.252 297.436,96.931 269.312,167.086 234.938 C 281.724 178.768,296.863 173.827,316.586 186.145 C 344.682 203.691,374.359 187.100,374.359 153.846 C 374.359 120.592,344.682 104.001,316.586 121.548 C 296.863 133.865,281.724 128.924,167.086 72.755 C 96.931 38.381,35.252 10.256,30.022 10.256 C 24.633 10.256,20.513 72.477,20.513 153.846 M166.667 94.080 C 227.308 123.326,276.923 150.221,276.923 153.846 C 276.923 160.680,62.320 266.831,48.718 266.726 C 44.487 266.693,41.026 215.897,41.026 153.846 C 41.026 91.795,44.487 40.999,48.718 40.966 C 52.949 40.933,106.026 64.835,166.667 94.080 M358.974 153.846 C 358.974 167.521,352.137 174.359,338.462 174.359 C 324.786 174.359,317.949 167.521,317.949 153.846 C 317.949 140.171,324.786 133.333,338.462 133.333 C 352.137 133.333,358.974 140.171,358.974 153.846 " stroke="none" fill="#000000" fill-rule="evenodd"></path></g></svg>