<svg id="svg" version="1.1" xmlns="http://www.w3.org/2000/svg" xmlns:xlink="http://www.w3.org/1999/xlink" viewBox="68 144.62 261.25 110.72"><g id="svgg"><path id="path0" d="M132.308 148.589 C 132.308 151.260,133.658 156.997,135.308 161.338 L 138.309 169.231 103.001 169.231 C 55.865 169.231,56.570 174.923,103.846 176.056 L 140.000 176.923 140.000 200.000 L 140.000 223.077 103.846 223.944 C 56.570 225.077,55.865 230.769,103.001 230.769 L 138.309 230.769 135.308 238.662 C 128.712 256.013,129.437 256.419,163.846 254.616 C 210.850 252.154,243.174 237.526,254.612 213.540 L 259.601 203.077 294.416 203.077 C 315.575 203.077,329.231 201.870,329.231 200.000 C 329.231 198.130,315.575 196.923,294.416 196.923 L 259.601 196.923 254.612 186.460 C 243.174 162.474,210.850 147.846,163.846 145.384 C 136.468 143.950,132.308 144.372,132.308 148.589 M210.655 158.917 C 282.190 185.611,253.630 243.423,166.423 248.452 C 138.853 250.041,137.582 249.842,139.970 244.292 C 148.794 223.782,148.794 176.218,139.970 155.708 C 136.603 147.883,187.247 150.182,210.655 158.917 " stroke="none" fill="#000000" fill-rule="evenodd"></path></g></svg>