<svg id="svg" xmlns="http://www.w3.org/2000/svg" xmlns:xlink="http://www.w3.org/1999/xlink" width="400" height="351.219512195122" viewBox="0, 0, 400,351.219512195122"><g id="svgg"><path id="path0" d="M4.445 30.229 C 8.556 48.481,11.713 71.011,11.459 80.296 C 11.205 89.580,15.109 99.717,20.133 102.823 C 32.044 110.184,32.044 241.035,20.133 248.397 C 15.109 251.502,11.205 261.639,11.459 270.924 C 11.713 280.208,8.556 302.738,4.445 320.991 L -3.030 354.176 98.485 348.808 C 497.653 327.700,497.653 23.519,98.485 2.411 L -3.030 -2.957 4.445 30.229 M248.419 45.346 C 475.238 129.986,384.680 313.292,108.170 329.237 C 20.752 334.278,16.723 333.644,24.294 316.046 C 52.274 251.017,52.274 100.203,24.294 35.173 C 13.619 10.361,174.199 17.650,248.419 45.346 " stroke="none" fill="#000000" fill-rule="evenodd"></path></g></svg>