<svg id="svg" version="1.1" xmlns="http://www.w3.org/2000/svg" xmlns:xlink="http://www.w3.org/1999/xlink" width="400" height="384.75073313782997" viewBox="0, 0, 400,384.75073313782997"><g id="svgg"><path id="path0" d="M20.723 3.128 C 20.293 3.558,19.941 45.787,19.941 96.970 L 19.941 190.029 11.144 190.029 L 2.346 190.029 2.346 197.067 L 2.346 204.106 11.136 204.106 L 19.927 204.106 20.227 292.375 L 20.528 380.645 209.091 380.942 L 397.654 381.239 397.654 191.792 L 397.654 2.346 209.580 2.346 C 106.139 2.346,21.153 2.698,20.723 3.128 M383.578 191.789 L 383.578 367.155 208.798 367.155 L 34.018 367.155 34.018 192.571 C 34.018 96.549,34.370 17.634,34.800 17.204 C 35.230 16.774,113.881 16.422,209.580 16.422 L 383.578 16.422 383.578 191.789 M39.883 192.371 L 39.883 361.290 208.802 361.290 L 377.721 361.290 377.423 192.669 L 377.126 24.047 208.504 23.750 L 39.883 23.452 39.883 192.371 M371.848 192.962 L 371.848 356.598 208.211 356.598 L 44.575 356.598 44.575 192.962 L 44.575 29.326 208.211 29.326 L 371.848 29.326 371.848 192.962 " stroke="none" fill="#000000" fill-rule="evenodd"></path></g></svg>