<svg id="svg" xmlns="http://www.w3.org/2000/svg" xmlns:xlink="http://www.w3.org/1999/xlink" width="400" height="266.6666666666667" viewBox="0, 0, 400,266.6666666666667"><g id="svgg"><path id="path0" d="M44.444 9.565 C 44.444 15.996,47.695 29.808,51.669 40.259 C 62.741 69.382,34.332 66.274,22.222 37.037 C 11.553 11.280,-3.730 6.496,4.474 31.481 C 7.484 40.648,9.588 53.916,9.149 60.965 C 8.709 68.015,11.471 75.711,15.286 78.069 C 24.330 83.658,24.330 183.008,15.286 188.598 C 11.471 190.955,8.709 198.652,9.149 205.701 C 9.588 212.751,7.484 226.019,4.474 235.185 C -3.730 260.171,11.553 255.387,22.222 229.630 C 34.332 200.393,62.741 197.285,51.669 226.408 C 35.787 268.180,37.534 269.156,120.370 264.817 C 226.950 259.234,312.341 223.105,334.643 174.158 C 340.371 161.586,348.053 157.507,364.598 158.254 C 378.499 158.882,389.997 154.395,395.238 146.296 C 407.926 126.693,392.135 107.169,364.598 108.412 C 348.053 109.159,340.371 105.081,334.643 92.509 C 323.891 68.912,282.103 38.686,235.623 20.887 C 181.851 0.295,44.444 -7.842,44.444 9.565 M233.059 34.430 C 405.273 98.693,336.516 237.870,126.574 249.976 C 60.201 253.803,57.141 253.322,62.890 239.961 C 84.134 190.587,84.134 76.080,62.890 26.705 C 54.785 7.867,176.707 13.401,233.059 34.430 M62.963 133.333 C 62.963 183.242,61.457 189.105,48.148 191.013 C 34.381 192.987,33.333 188.907,33.333 133.333 C 33.333 77.759,34.381 73.679,48.148 75.653 C 61.457 77.562,62.963 83.424,62.963 133.333 M385.185 133.333 C 385.185 143.210,380.247 148.148,370.370 148.148 C 360.494 148.148,355.556 143.210,355.556 133.333 C 355.556 123.457,360.494 118.519,370.370 118.519 C 380.247 118.519,385.185 123.457,385.185 133.333 " stroke="none" fill="#000000" fill-rule="evenodd"></path></g></svg>