<svg id="svg" version="1.1" xmlns="http://www.w3.org/2000/svg" xmlns:xlink="http://www.w3.org/1999/xlink" viewBox="68.25 144.62 261 110.72"><g id="svgg"><path id="path0" d="M132.308 148.589 C 132.308 151.260,133.658 156.997,135.308 161.338 C 139.908 173.435,128.107 172.144,123.077 160.000 C 117.183 145.770,111.400 147.012,116.847 161.338 L 119.848 169.231 93.770 169.231 C 59.263 169.231,59.966 174.890,94.615 176.034 L 121.538 176.923 121.538 200.000 L 121.538 223.077 94.615 223.966 C 59.966 225.110,59.263 230.769,93.770 230.769 L 119.848 230.769 116.847 238.662 C 111.400 252.988,117.183 254.230,123.077 240.000 C 128.107 227.856,139.908 226.565,135.308 238.662 C 128.712 256.013,129.437 256.419,163.846 254.616 C 208.288 252.288,243.587 237.292,252.939 216.767 C 255.541 211.056,257.937 209.895,264.439 211.195 C 269.802 212.268,274.058 211.145,276.703 207.958 C 279.774 204.257,286.615 203.077,304.992 203.077 C 319.100 203.077,329.231 201.791,329.231 200.000 C 329.231 198.209,319.100 196.923,304.992 196.923 C 286.615 196.923,279.774 195.743,276.703 192.042 C 274.058 188.855,269.802 187.732,264.439 188.805 C 257.937 190.105,255.541 188.944,252.939 183.233 C 248.392 173.254,231.157 160.734,211.720 153.291 C 189.384 144.738,132.308 141.358,132.308 148.589 M210.655 158.917 C 282.190 185.611,253.630 243.423,166.423 248.452 C 138.853 250.041,137.582 249.842,139.970 244.292 C 148.794 223.782,148.794 176.218,139.970 155.708 C 136.603 147.883,187.247 150.182,210.655 158.917 M140.000 200.000 C 140.000 220.731,139.375 223.167,133.846 223.959 C 128.128 224.779,127.692 223.085,127.692 200.000 C 127.692 176.915,128.128 175.221,133.846 176.041 C 139.375 176.833,140.000 179.269,140.000 200.000 M273.846 200.000 C 273.846 204.103,271.795 206.154,267.692 206.154 C 263.590 206.154,261.538 204.103,261.538 200.000 C 261.538 195.897,263.590 193.846,267.692 193.846 C 271.795 193.846,273.846 195.897,273.846 200.000 " stroke="none" fill="#000000" fill-rule="evenodd"></path></g></svg>