<svg id="svg" version="1.1" xmlns="http://www.w3.org/2000/svg" xmlns:xlink="http://www.w3.org/1999/xlink" viewBox="68.25 144.62 261 110.72"><g id="svgg"><path id="path0" d="M132.308 148.589 C 132.308 151.260,133.658 156.997,135.308 161.338 C 139.908 173.435,128.107 172.144,123.077 160.000 C 117.183 145.770,111.400 147.012,116.847 161.338 L 119.848 169.231 93.770 169.231 C 59.263 169.231,59.966 174.890,94.615 176.034 L 121.538 176.923 121.538 200.000 L 121.538 223.077 94.615 223.966 C 59.966 225.110,59.263 230.769,93.770 230.769 L 119.848 230.769 116.847 238.662 C 111.400 252.988,117.183 254.230,123.077 240.000 C 128.107 227.856,139.908 226.565,135.308 238.662 C 128.712 256.013,129.437 256.419,163.846 254.616 C 210.850 252.154,243.174 237.526,254.612 213.540 L 259.601 203.077 294.416 203.077 C 315.575 203.077,329.231 201.870,329.231 200.000 C 329.231 198.130,315.575 196.923,294.416 196.923 L 259.601 196.923 254.612 186.460 C 243.174 162.474,210.850 147.846,163.846 145.384 C 136.468 143.950,132.308 144.372,132.308 148.589 M210.655 158.917 C 282.190 185.611,253.630 243.423,166.423 248.452 C 138.853 250.041,137.582 249.842,139.970 244.292 C 148.794 223.782,148.794 176.218,139.970 155.708 C 136.603 147.883,187.247 150.182,210.655 158.917 M140.000 200.000 C 140.000 220.731,139.375 223.167,133.846 223.959 C 128.128 224.779,127.692 223.085,127.692 200.000 C 127.692 176.915,128.128 175.221,133.846 176.041 C 139.375 176.833,140.000 179.269,140.000 200.000 " stroke="none" fill="#000000" fill-rule="evenodd"></path></g></svg>