<svg id="svg" xmlns="http://www.w3.org/2000/svg" xmlns:xlink="http://www.w3.org/1999/xlink" width="400" height="306.3829787234042" viewBox="0, 0, 400,306.3829787234042"><g id="svgg"><path id="path0" d="M51.064 10.990 C 51.064 18.378,54.799 34.248,59.364 46.254 C 72.085 79.715,39.446 76.144,25.532 42.553 C 13.274 12.960,-4.285 7.464,5.141 36.170 C 8.599 46.702,11.016 61.946,10.511 70.045 C 10.007 78.145,13.180 86.988,17.563 89.696 C 27.954 96.118,27.954 210.265,17.563 216.687 C 13.180 219.395,10.007 228.238,10.511 236.338 C 11.016 244.437,8.599 259.681,5.141 270.213 C -4.285 298.919,13.274 293.423,25.532 263.830 C 39.446 230.239,72.085 226.668,59.364 260.129 C 41.114 308.128,43.119 309.248,138.298 304.212 C 484.348 285.903,484.348 20.480,138.298 2.171 C 62.553 -1.837,51.064 -0.675,51.064 10.990 M267.770 39.558 C 465.633 113.392,386.636 273.297,145.425 287.206 C 69.167 291.604,65.652 291.051,72.257 275.700 C 96.665 218.972,96.665 87.411,72.257 30.683 C 62.944 9.039,203.025 15.397,267.770 39.558 M72.340 153.191 C 72.340 210.534,70.610 217.269,55.319 219.462 C 39.502 221.730,38.298 217.043,38.298 153.191 C 38.298 89.340,39.502 84.653,55.319 86.921 C 70.610 89.114,72.340 95.849,72.340 153.191 " stroke="none" fill="#000000" fill-rule="evenodd"></path></g></svg>